<svg id="Layer_1" data-name="Layer 1" xmlns="http://www.w3.org/2000/svg" viewBox="0 0 1080 1080"><defs><style>.cls-1{fill:#236793;}.cls-2{fill:#2793d3;}.cls-3{fill:#32b8e0;}.cls-4{fill:#0b5f9f;}</style></defs><path class="cls-1" d="M540,348.77c105.61,0,191.23,85.62,191.23,191.23S645.61,731.23,540,731.23,348.77,645.61,348.77,540,434.39,348.77,540,348.77m0-7.6c-109.64,0-198.83,89.19-198.83,198.83S430.36,738.83,540,738.83,738.83,649.64,738.83,540,649.64,341.17,540,341.17Z"/><path class="cls-1" d="M540,234.89c168.51,0,305.11,136.6,305.11,305.11S708.51,845.11,540,845.11,234.89,708.51,234.89,540,371.49,234.89,540,234.89m0-7.6a312.71,312.71,0,1,0,221.12,91.59A310.63,310.63,0,0,0,540,227.29Z"/><path class="cls-2" d="M357,563.68c5.23-7.19,13.15-10.91,19.84-9.18,4.46,1.16,8.43,4.76,10.55,8.26,4,6.6,3.81,13.17,3.78,20.52l-.07,20.58q-.07,20.91-.14,41.81l17,.3s-.17-24.11-.21-50.42c0-15.86,0-13.19,0-25.47,0-8-.53-16.11,0-24.05,1-13.42,7.61-27.39,15.47-38.11,5.47-7.46,11.91-15.68,21.48-17.89,8.31-1.93,17,1.23,22.76,7.36A26.06,26.06,0,0,1,474.52,515V650.56L512,655.15c-.09-5.41-1.47-92.21-.77-164.68a179.43,179.43,0,0,1,6.12-46.4,149.56,149.56,0,0,1,18-41.6c9.07-14.31,19.63-30.45,37.85-33.81a32.36,32.36,0,0,1,3.26-.46,40.17,40.17,0,0,1,5.18-.1,48.19,48.19,0,0,1,27.13,12.65c3.57,3.4,9.9,10.55,15.29,31.81,3.28,12.92,4.33,23.62,5.2,45.28,1,25.27.77,47.2.88,71.45,0,11.75,0,23.49-.44,35.23-.76,23-1.46,56.69-.74,98.28l44,3.06a192.21,192.21,0,0,0,51.39-127.57c.74-38.82-16-80.28-39.46-110.74a186.17,186.17,0,0,0-91-63.78,97,97,0,0,0-16.22-4.37c-7.41-1.2-12.7-2.06-18.92-.27-5.76,1.66-9.41,4.79-16.47,11a137.13,137.13,0,0,0-13.22,13.29L495.5,417.12,456,456.7q-19.74,19.8-39.49,39.58L382.86,530l-22,22-5.33,5.35Z"/><path class="cls-3" d="M395.6,653.31H454V632.05h14.53v26.77c14.34,1.68,29.51,3,45.45,3.82a692,692,0,0,0,71,0V632.05h35.18v39.11L663.68,675a190.75,190.75,0,0,1-85.77,46.46c-15,3.48-29.77,4-45,2.82l-2.38-.19c-30.4-2.38-61.54-10.81-87.62-26.93-3-1.87-6-3.86-8.87-6A187,187,0,0,1,395.6,653.31Z"/><path class="cls-4" d="M372.25,612.42q.36-12.33.71-24.67a31.18,31.18,0,0,1,9.69-17.34,8.06,8.06,0,0,0-2.86-4.59c-2.62-2-6.5-2-9.79-.1a25.66,25.66,0,0,0-7,10.91c-1.93,5.93-1,10.92-.1,15.4A49.3,49.3,0,0,0,372.25,612.42Z"/><path class="cls-4" d="M445.05,559a63.16,63.16,0,0,1,13.51-37.59c1.86-2.38,4.63-4.73,6.07-7.37,2.33-4.26-1.6-9.77-4.48-12.75s-11.51-8.41-15.95-5.33c-9.13,6.31-15.22,15.57-19.39,25.72-4.85,11.8-8.43,24.77-8.1,37.62.21,8.12,0,16.27,0,24.39v63.21h26.76Q444.27,602.94,445.05,559Z"/><path class="cls-4" d="M520.72,654.84h58.12l.81-168.66A159,159,0,0,1,596,438.06a149.4,149.4,0,0,1,8.59-14.13c2.92-4.27,8.87-9.32,9.71-14.55.73-4.63-2.2-9.74-4.24-13.7a35.81,35.81,0,0,0-17.27-16.76c-7.64-3.33-18.29-4.87-25.84-.52-8.76,5-16.51,15.43-22.14,23.56-16.57,23.92-24.06,56.72-24.06,85.55V654.84Z"/><path class="cls-4" d="M527.29,377l-14.76,14.91-.69-24.24,15.61-10.32Q527.36,367.17,527.29,377Z"/><path class="cls-4" d="M503.43,398.74l-14.76,14.92L488,389.41l15.45-16.08Z"/><path class="cls-4" d="M480,423.83l-14.76,14.91-.69-24.24L480,398.41Z"/><path class="cls-4" d="M456.46,447.28,441,464l-.16-22.33L456.48,424Z"/><path class="cls-4" d="M432,471.73,416.79,487.2l-.09-19,14.86-16.93Q431.79,461.53,432,471.73Z"/><path class="cls-4" d="M409.67,495.39l-17.36,17.05-.46-17.59,17.36-18Z"/><path class="cls-4" d="M385.81,519.25l-16.44,15.91q-.09-7.47-.16-14.92l16.6-16.9Z"/><path class="cls-4" d="M362.41,542.32l-6.68,6.22-.1-13.61,6.52-5.31Z"/><path class="cls-4" d="M536.86,355.13c.07,3.82.15,7.65.22,11.47l10.66-9.52Z"/><path class="cls-1" d="M476.25,267.43c.13.57.25,1.14.38,1.71a15.28,15.28,0,0,0-6.1,3.62,18.58,18.58,0,0,0-3.84,8.25,340.05,340.05,0,0,0-8.35,59.53l-1.71.65a313.78,313.78,0,0,0-48.09-38.7,25.83,25.83,0,0,0-5.42-3,10.91,10.91,0,0,0-4.51-.18,22.07,22.07,0,0,0-6,2.13l-.86-1.51a298.6,298.6,0,0,1,31.68-15.68c.23.53.46,1.07.68,1.6-3.53,1.8-5.66,3.33-6.43,4.47a3.17,3.17,0,0,0-.44,3.25c.66,1.42,2.55,3.24,5.62,5.5A318,318,0,0,1,455,326.33a343.19,343.19,0,0,1,5.62-40.66c.79-4,1.05-6.7.66-8.06-.24-.88-1-1.56-2.43-2s-3.5-.47-6.35.05l-1.06.18-.51-1.66Q463.47,270.22,476.25,267.43Z"/><path class="cls-1" d="M507.79,296.42q1.13,9.22,2.27,18.44c.5,4,1.27,6.4,2.3,7.26,1.42,1.22,3.37,1.69,5.9,1.46l2.56-.23c0,.58.09,1.16.14,1.74a236.89,236.89,0,0,0-28.23,4.05c-.12-.57-.23-1.14-.35-1.7l2.48-.5c2.79-.54,4.63-1.75,5.56-3.69.49-1.07.45-3.39-.14-7q-3.33-20.34-6.67-40.66-1-6-2.86-7.11c-1.81-1.09-4.3-1.36-7.43-.75l-3.11.62c-.11-.56-.23-1.13-.35-1.7A297.83,297.83,0,0,1,510.5,262c7.53-.75,13.52-.49,17.89.51a23,23,0,0,1,11,5.71,13,13,0,0,1,4.25,9.94,16,16,0,0,1-6.27,12.7c-4.05,3.31-9.62,5.08-16.92,5.63-1.79.13-3.73.19-5.84.17S510.22,296.56,507.79,296.42Zm-.33-2.66c2,.07,3.75.11,5.28.11s2.83,0,3.9-.14a15.33,15.33,0,0,0,9.76-4.48,12.79,12.79,0,0,0,3.9-10,14.39,14.39,0,0,0-2.44-7.6,12.79,12.79,0,0,0-6.45-5,21.16,21.16,0,0,0-9.3-1,40.45,40.45,0,0,0-7.9,1.76Q505.83,280.6,507.46,293.76Z"/><path class="cls-1" d="M570.53,296.13q-1,9.22-2.11,18.46c-.45,4-.26,6.52.54,7.59,1.1,1.52,2.88,2.44,5.4,2.8l2.54.38-.27,1.72a234.73,234.73,0,0,0-28.35-2.66l.06-1.74,2.51.1c2.83.12,4.9-.62,6.25-2.29q1.1-1.38,1.5-6.82l3-41.1c.3-4-.06-6.53-1.1-7.57-1.5-1.49-3.85-2.33-7-2.47l-3.15-.12.06-1.74a303.3,303.3,0,0,1,30.82,2.62c7.5,1,13.29,2.7,17.33,4.7a23.21,23.21,0,0,1,9.37,8.13,13,13,0,0,1,1.83,10.67,16,16,0,0,1-9.11,10.87c-4.74,2.26-10.6,2.67-17.84,1.49-1.78-.29-3.68-.69-5.73-1.2S572.86,296.84,570.53,296.13Zm.3-2.67c1.93.54,3.63,1,5.12,1.35s2.76.62,3.83.78a15.46,15.46,0,0,0,10.56-2.07,12.77,12.77,0,0,0,6.14-8.79,14.31,14.31,0,0,0-.59-8,12.81,12.81,0,0,0-5.13-6.36,21.32,21.32,0,0,0-8.82-3.17,40.87,40.87,0,0,0-8.1-.13Q572.34,280.28,570.83,293.46Z"/><path class="cls-1" d="M664.61,339.12l1.4,1.16q-7,6-13.7,12.2A236.6,236.6,0,0,0,603.82,333l.47-1.67,2.44.69c2.74.8,4.94.57,6.66-.72q1.47-1.11,3.15-6.3l12.66-39.16q1.84-5.69.65-7.65c-1.12-1.8-3.23-3.19-6.31-4.08l-3.06-.87.46-1.68a299.66,299.66,0,0,1,36.53,12.78c-.23.53-.45,1.06-.68,1.6-4.17-1.8-7.25-2.66-9.18-2.71a7.08,7.08,0,0,0-4.35,1c-1,.71-2.11,2.85-3.42,6.41L626,328.21c-.9,2.44-1.26,4.22-1.09,5.32a3.63,3.63,0,0,0,1.25,2c.68.6,3.08,1.67,7.18,3.38q2.31,1,4.61,2c4.84,2.15,8.34,3.48,10.59,3.8a15.91,15.91,0,0,0,7.06-.66A34.89,34.89,0,0,0,664.61,339.12Z"/><path class="cls-1" d="M284.86,592.9l-6.8,1.71a7.9,7.9,0,0,0-2.42.86,1.79,1.79,0,0,0-.61,1,5.7,5.7,0,0,0,.25,2.29l-.66.17-3.05-12.13.66-.17a5.48,5.48,0,0,0,.88,2.15,1.85,1.85,0,0,0,1,.62,8,8,0,0,0,2.53-.39l15.75-4a8,8,0,0,0,2.42-.86,1.81,1.81,0,0,0,.6-1,5.52,5.52,0,0,0-.25-2.29l.66-.17,2.77,11a24,24,0,0,1,1,6.45,6.56,6.56,0,0,1-1.43,3.82,6.31,6.31,0,0,1-3.52,2.22,6,6,0,0,1-4.92-.77,8,8,0,0,1-2.51-3l-6.78,7.76a12.63,12.63,0,0,0-1.59,2.09,3,3,0,0,0-.19,1.82l-.66.16-1.88-7.46,9.14-10.42Zm11.9-3-10.63,2.68.25,1a11.23,11.23,0,0,0,1.37,3.52,3.76,3.76,0,0,0,2.13,1.48,6.32,6.32,0,0,0,3.27-.09,5.93,5.93,0,0,0,3.78-2.3,5.59,5.59,0,0,0,.3-4.42Z"/><path class="cls-1" d="M283.41,625.72l-.64.22-4.06-12.12.65-.22.25.77a3.29,3.29,0,0,0,.91,1.5,1.67,1.67,0,0,0,1.07.41,7.73,7.73,0,0,0,2.27-.55l15.62-5.23a8.82,8.82,0,0,0,2.21-1,1.85,1.85,0,0,0,.54-1,3.15,3.15,0,0,0-.18-1.66l-.26-.77.65-.22L306.5,618l-.65.22-.25-.77a3.32,3.32,0,0,0-.92-1.5,1.76,1.76,0,0,0-1.07-.42,7.79,7.79,0,0,0-2.27.55l-15.61,5.23a8,8,0,0,0-2.21,1,1.88,1.88,0,0,0-.54,1,3.14,3.14,0,0,0,.18,1.66Z"/><path class="cls-1" d="M316.77,641.41l-8.11,3.46-.26-.61a11.27,11.27,0,0,0,3.63-5.49,8.43,8.43,0,0,0-.34-5.6,6.69,6.69,0,0,0-3.25-3.57,8.48,8.48,0,0,0-5.06-.64,21.91,21.91,0,0,0-5.62,1.58,21.38,21.38,0,0,0-5.48,3.24,7.18,7.18,0,0,0-2.62,4,7.57,7.57,0,0,0,.56,4.54,8.41,8.41,0,0,0,.89,1.59,13.17,13.17,0,0,0,1.26,1.52l4.79-2a5.77,5.77,0,0,0,1.68-.94,1.89,1.89,0,0,0,.4-1.06,3.06,3.06,0,0,0-.27-1.52l-.25-.58.63-.27L304,650l-.62.26a5.17,5.17,0,0,0-1.09-1.58,1.87,1.87,0,0,0-1.2-.38,5.26,5.26,0,0,0-1.64.53l-4.79,2a24,24,0,0,1-3.4-3.85,24.56,24.56,0,0,1-2.56-4.62,14.63,14.63,0,0,1-1.38-5.69,14.25,14.25,0,0,1,.75-4.73,11.81,11.81,0,0,1,2.18-3.92,12.66,12.66,0,0,1,4.75-3.41,13,13,0,0,1,10.3-.18,13.17,13.17,0,0,1,7.41,7.43,16.51,16.51,0,0,1,1,3.14,15.94,15.94,0,0,1,.24,2.69,10,10,0,0,0,.19,2.2,1.42,1.42,0,0,0,.71.72,3.43,3.43,0,0,0,1.63.16Z"/><path class="cls-1" d="M310.71,658.92l-6.76,3.8a7.72,7.72,0,0,0-2,1.35,1.89,1.89,0,0,0-.33,1.12,3.05,3.05,0,0,0,.48,1.6l.4.71-.6.33-6.26-11.14.6-.34.4.71a3.28,3.28,0,0,0,1.17,1.3,1.73,1.73,0,0,0,1.13.2,7.66,7.66,0,0,0,2.12-1l14.36-8.06a8.3,8.3,0,0,0,2-1.35,1.77,1.77,0,0,0,.34-1.11,3.15,3.15,0,0,0-.48-1.6l-.4-.71.6-.33,6.26,11.14-.6.34-.4-.71a3.28,3.28,0,0,0-1.17-1.3,1.74,1.74,0,0,0-1.14-.21,7.83,7.83,0,0,0-2.12,1l-6.18,3.47,4.23,7.53,6.18-3.47a7.93,7.93,0,0,0,2-1.35,1.83,1.83,0,0,0,.34-1.11,3.39,3.39,0,0,0-.49-1.61l-.39-.69.59-.34,6.25,11.13-.59.34-.39-.7a3.29,3.29,0,0,0-1.18-1.3,1.71,1.71,0,0,0-1.13-.21,7.79,7.79,0,0,0-2.13,1l-14.35,8.06a8.06,8.06,0,0,0-2,1.35,1.83,1.83,0,0,0-.33,1.11,3.18,3.18,0,0,0,.49,1.61l.38.69-.59.34-6.25-11.13.59-.34.39.7a3.37,3.37,0,0,0,1.18,1.3,1.71,1.71,0,0,0,1.13.21,7.66,7.66,0,0,0,2.13-1l6.76-3.79Z"/><path class="cls-1" d="M344.16,687.05l-5.55,3.9-.37-.53a10.85,10.85,0,0,0,2-3,4.89,4.89,0,0,0,.23-2.51,6,6,0,0,0-1.11-2.16l-1-1.49-15.8,11.09a8.33,8.33,0,0,0-1.85,1.55,1.88,1.88,0,0,0-.22,1.15,3.17,3.17,0,0,0,.65,1.56l.47.66-.56.39-7.35-10.47.55-.39.47.66a3.37,3.37,0,0,0,1.3,1.18,1.76,1.76,0,0,0,1.15.09,7.71,7.71,0,0,0,2-1.17L335,676.48,334,675a5.07,5.07,0,0,0-2.94-2.32,7.13,7.13,0,0,0-4.63.83L326,673l5.54-3.9Z"/><path class="cls-1" d="M351.89,714a12.41,12.41,0,0,1,1.8,5,5.44,5.44,0,0,1-1.87,4.43,5.84,5.84,0,0,1-4.95,1.49c-2.32-.34-4.65-1.79-7-4.35l-8.35-9.2.5-.46a5.58,5.58,0,0,0,1.79,1.49,1.89,1.89,0,0,0,1.19.06,7.79,7.79,0,0,0,2.05-1.53l12-10.92a8.08,8.08,0,0,0,1.73-1.9,1.81,1.81,0,0,0,.05-1.2,5.75,5.75,0,0,0-1.31-1.91l.51-.45,7.87,8.67a16.2,16.2,0,0,1,3.44,4.92,6.35,6.35,0,0,1,.16,3.58,5.77,5.77,0,0,1-1.72,2.92,4.64,4.64,0,0,1-3.25,1.22A9.14,9.14,0,0,1,351.89,714Zm-5.11-4.22-5.94,5.4-.7.6a2.1,2.1,0,0,0-.78,1.38,2,2,0,0,0,.61,1.43,5.61,5.61,0,0,0,2.28,1.53,4.39,4.39,0,0,0,2.66.1,6,6,0,0,0,2.49-1.38,6.22,6.22,0,0,0,1.8-2.71,4.3,4.3,0,0,0,0-2.92A11.51,11.51,0,0,0,346.78,709.78Zm1.07-1a9.3,9.3,0,0,0,3,2.4,4.31,4.31,0,0,0,2.49.26,6,6,0,0,0,4-3.66,4.07,4.07,0,0,0,0-2.44,9.67,9.67,0,0,0-2.17-3.18Z"/><path class="cls-1" d="M366.11,712.18l9.35,8.47-.46.51-.47-.42a4.3,4.3,0,0,0-1.65-1.09,1.74,1.74,0,0,0-1.13.11,9.56,9.56,0,0,0-2,1.84l-8.23,9.08a13,13,0,0,0-2.62,3.63,4.19,4.19,0,0,0,0,2.43,5.19,5.19,0,0,0,1.64,2.46,6,6,0,0,0,3.12,1.59,5.54,5.54,0,0,0,3.24-.46,15.71,15.71,0,0,0,4.27-3.68l6.85-7.56a6.19,6.19,0,0,0,1.36-2,2.14,2.14,0,0,0,0-1.32,5,5,0,0,0-1.42-1.85l.46-.51,6.27,5.68-.46.5-.37-.34a3.15,3.15,0,0,0-1.56-.83,2.33,2.33,0,0,0-1.59.28,6.54,6.54,0,0,0-1.6,1.41l-6.38,7a25.62,25.62,0,0,1-4.69,4.34,7.13,7.13,0,0,1-4.47.81,9.84,9.84,0,0,1-5.55-2.82,11.08,11.08,0,0,1-3-3.93,7.21,7.21,0,0,1-.44-4.48,10.65,10.65,0,0,1,2.61-4.34l8.22-9.08a8.75,8.75,0,0,0,1.63-2.15,1.78,1.78,0,0,0,0-1.16,4.84,4.84,0,0,0-1.38-1.65Z"/><path class="cls-1" d="M398.87,738.84,394,745.63l-.59-.45a8.64,8.64,0,0,0,1-5.58,6.44,6.44,0,0,0-2.39-4.19,4.08,4.08,0,0,0-2.93-.94,3.08,3.08,0,0,0-2.25,1.2,2.91,2.91,0,0,0-.59,1.41,6.3,6.3,0,0,0,.31,2.38,39.41,39.41,0,0,0,1.83,4.08c1.41,2.87,2.14,5.11,2.16,6.74a7,7,0,0,1-1.46,4.4,7.14,7.14,0,0,1-5.15,2.87,8.48,8.48,0,0,1-6.21-1.84,9.63,9.63,0,0,1-1.6-1.51,16.09,16.09,0,0,1-1.51-2.27,3.89,3.89,0,0,0-.92-1.15,1.71,1.71,0,0,0-1-.3,2.65,2.65,0,0,0-1.36.39l-.53-.4,5.69-7.55.53.4a10.94,10.94,0,0,0-1.22,6.7,7.06,7.06,0,0,0,2.64,4.6,4.48,4.48,0,0,0,3.24,1,3.43,3.43,0,0,0,3.2-3,5.34,5.34,0,0,0-.16-2.1,20.46,20.46,0,0,0-1.48-3.55,28.8,28.8,0,0,1-2.11-5.17,8.75,8.75,0,0,1-.2-3.46,6.62,6.62,0,0,1,1.3-3,6.88,6.88,0,0,1,4.78-2.78,7.41,7.41,0,0,1,5.59,1.57,9.16,9.16,0,0,1,1.66,1.63,11.71,11.71,0,0,1,1.16,1.9,4.76,4.76,0,0,0,1,1.5.92.92,0,0,0,.76.21,3.42,3.42,0,0,0,1.26-.83Z"/><path class="cls-1" d="M398.65,768.56l-.37.57-10.71-7,.38-.58.68.45a3.37,3.37,0,0,0,1.64.61,1.7,1.7,0,0,0,1.09-.35,8.09,8.09,0,0,0,1.44-1.84l9-13.79a8.66,8.66,0,0,0,1.15-2.12,1.89,1.89,0,0,0-.21-1.14,3.21,3.21,0,0,0-1.17-1.19l-.68-.45.37-.57,10.7,7-.37.57-.68-.45a3.37,3.37,0,0,0-1.64-.61,1.82,1.82,0,0,0-1.11.34,7.88,7.88,0,0,0-1.43,1.84l-9,13.79a8.14,8.14,0,0,0-1.14,2.12,1.92,1.92,0,0,0,.22,1.15,3.21,3.21,0,0,0,1.17,1.19Z"/><path class="cls-1" d="M420,752.87l3.18,19.4,5.14-9.46a5.14,5.14,0,0,0,.9-3,3.45,3.45,0,0,0-2.06-2.29l.33-.6,7.1,3.86-.33.6a5.9,5.9,0,0,0-2.08-.53,2,2,0,0,0-1.23.52,7.5,7.5,0,0,0-1.46,2.06l-9.95,18.31-.54-.3-4.57-26.2-7.6,14a3.56,3.56,0,0,0-.55,3,3.52,3.52,0,0,0,1.58,1.72l.51.28-.33.6-7.61-4.15.32-.6a3.81,3.81,0,0,0,2.88.6,4,4,0,0,0,2-2.1l8.44-15.52-.14-.83a4.84,4.84,0,0,0-.58-1.81,4.12,4.12,0,0,0-1.33-1.13l.32-.6Z"/><path class="cls-1" d="M443.28,766l-3.94,9.4.45.19a3.83,3.83,0,0,0,3.69-.08,9.41,9.41,0,0,0,2.93-3.55l.63.27L442,784.3l-.63-.26a10.06,10.06,0,0,0,.51-3.59,3.92,3.92,0,0,0-.78-2.32,6,6,0,0,0-2.27-1.46l-2.73,6.5a10.32,10.32,0,0,0-.82,2.4,1.51,1.51,0,0,0,.3.95,3,3,0,0,0,1.28.85l1.35.57a8.62,8.62,0,0,0,5.69.62,9,9,0,0,0,4.64-3.41l.62.25-4.09,6.92-19.49-8.17.27-.63.75.31a3.37,3.37,0,0,0,1.73.31,1.67,1.67,0,0,0,1-.54,7.69,7.69,0,0,0,1.09-2.07l6.36-15.19a14.23,14.23,0,0,0,.73-2,1.86,1.86,0,0,0-.23-1.18,3,3,0,0,0-1.53-1.2l-.75-.32.26-.63L454.11,769l-2.86,6.82-.63-.26a9.08,9.08,0,0,0,.15-4.16,5.51,5.51,0,0,0-1.8-2.64,14.52,14.52,0,0,0-3.36-1.77Z"/><path class="cls-1" d="M473.24,774.64l-2.34,8-.7-.22a8.64,8.64,0,0,0-.92-5.59,6.39,6.39,0,0,0-3.64-3.16,4.11,4.11,0,0,0-3.08.07,3.07,3.07,0,0,0-1.72,1.89,2.83,2.83,0,0,0-.09,1.52,6.24,6.24,0,0,0,1.08,2.14,37.31,37.31,0,0,0,3.07,3.25q3.44,3.35,4.28,5.63a7,7,0,0,1,.08,4.64,7.14,7.14,0,0,1-3.91,4.42,8.44,8.44,0,0,1-6.46.32,9.42,9.42,0,0,1-2-.89A16,16,0,0,1,454.7,795a3.76,3.76,0,0,0-1.25-.78,1.7,1.7,0,0,0-1.06,0,2.58,2.58,0,0,0-1.14.82l-.64-.21,2.86-9,.64.2a10.89,10.89,0,0,0,1.07,6.72,7,7,0,0,0,4,3.47,4.47,4.47,0,0,0,3.41-.1,3.5,3.5,0,0,0,1.94-2.13,3.68,3.68,0,0,0,.08-1.78,5.38,5.38,0,0,0-.86-1.92,20.14,20.14,0,0,0-2.57-2.86,28.73,28.73,0,0,1-3.7-4.18,8.66,8.66,0,0,1-1.34-3.2,6.66,6.66,0,0,1,.22-3.3,6.84,6.84,0,0,1,3.59-4.2,7.37,7.37,0,0,1,5.79-.37,9.23,9.23,0,0,1,2.11,1,11.68,11.68,0,0,1,1.72,1.41,4.84,4.84,0,0,0,1.44,1.08.93.93,0,0,0,.79-.05,3.51,3.51,0,0,0,.91-1.21Z"/><path class="cls-1" d="M492.43,779.28l-1.67,8.17-.72-.16a8.64,8.64,0,0,0-1.38-5.5,6.38,6.38,0,0,0-3.88-2.85,4.14,4.14,0,0,0-3.07.33,3.12,3.12,0,0,0-1.56,2,2.88,2.88,0,0,0,0,1.52,6.24,6.24,0,0,0,1.25,2.05,38.87,38.87,0,0,0,3.33,3,17.52,17.52,0,0,1,4.73,5.27,7,7,0,0,1,.45,4.61,7.17,7.17,0,0,1-3.53,4.73,8.48,8.48,0,0,1-6.42.85,9.9,9.9,0,0,1-2.07-.72,16.23,16.23,0,0,1-2.31-1.46,3.82,3.82,0,0,0-1.31-.68,1.69,1.69,0,0,0-1.05.14,2.63,2.63,0,0,0-1.08.9l-.65-.14,2.12-9.22.65.15a10.93,10.93,0,0,0,1.62,6.62A7.07,7.07,0,0,0,480.2,802a4.54,4.54,0,0,0,3.39-.38,3.5,3.5,0,0,0,1.75-2.29,3.45,3.45,0,0,0-.06-1.77,5.4,5.4,0,0,0-1-1.85,20.46,20.46,0,0,0-2.8-2.64,29.06,29.06,0,0,1-4-3.86,8.75,8.75,0,0,1-1.6-3.08,6.69,6.69,0,0,1,0-3.3,6.84,6.84,0,0,1,3.23-4.49,7.38,7.38,0,0,1,5.74-.84,9,9,0,0,1,2.18.8,11.24,11.24,0,0,1,1.83,1.26,4.57,4.57,0,0,0,1.53,1,1,1,0,0,0,.78-.12,3.48,3.48,0,0,0,.81-1.27Z"/><path class="cls-1" d="M539,785.08l-.06.68a2.34,2.34,0,0,0-1.18.29,3,3,0,0,0-.9,1c-.08.14-.54,1.06-1.36,2.76l-9.24,20-.7,0-4.78-16.56-7.91,15.57-.66-.05-6.43-21a22.77,22.77,0,0,0-1.42-3.85,2.25,2.25,0,0,0-1.58-.88l.06-.68,10.56.82,0,.68a2.92,2.92,0,0,0-1.73.27,1.13,1.13,0,0,0-.49.86,11,11,0,0,0,.65,3l3.84,12.48,4.56-9.16-.8-2.73a20.74,20.74,0,0,0-1.05-3,2.89,2.89,0,0,0-.95-1.12,3.62,3.62,0,0,0-1.69-.44l.05-.68,11.81.91,0,.68a6.64,6.64,0,0,0-1.8.07,1.17,1.17,0,0,0-.9,1.06,13,13,0,0,0,.61,2.66l3.52,12.16,4.81-10.39a20.88,20.88,0,0,0,.94-2.2,5.06,5.06,0,0,0,.24-1.11,1.52,1.52,0,0,0-.42-1.23,3.24,3.24,0,0,0-1.88-.62l0-.68Z"/><path class="cls-1" d="M552.4,808.55v.68l-12.77.28,0-.68.81,0a3.27,3.27,0,0,0,1.71-.42,1.67,1.67,0,0,0,.7-.9,8,8,0,0,0,.14-2.33l-.36-16.46a9,9,0,0,0-.25-2.4,1.85,1.85,0,0,0-.82-.82,3.16,3.16,0,0,0-1.64-.32h-.82v-.68l12.78-.28v.68l-.81,0a3.21,3.21,0,0,0-1.7.42,1.75,1.75,0,0,0-.72.9,7.54,7.54,0,0,0-.15,2.33l.37,16.47a8.36,8.36,0,0,0,.26,2.39,1.87,1.87,0,0,0,.83.82,3.14,3.14,0,0,0,1.64.32Z"/><path class="cls-1" d="M575.2,782.13l.67,6.74-.65.06a10.79,10.79,0,0,0-1.6-3.22,5,5,0,0,0-2.08-1.44,6.24,6.24,0,0,0-2.42-.09l-1.81.18,1.9,19.21a8.1,8.1,0,0,0,.45,2.37,1.87,1.87,0,0,0,.88.76,3.33,3.33,0,0,0,1.68.19l.81-.08.07.68-12.74,1.26-.07-.68.81-.08a3.33,3.33,0,0,0,1.67-.55,1.71,1.71,0,0,0,.64-1,7.25,7.25,0,0,0,0-2.33l-1.9-19.21-1.76.17a5.07,5.07,0,0,0-3.47,1.42A7.17,7.17,0,0,0,554.7,791L554,791l-.67-6.74Z"/><path class="cls-1" d="M588.13,792.92l1.57,7.59a7.77,7.77,0,0,0,.7,2.31,1.88,1.88,0,0,0,1,.65,3.19,3.19,0,0,0,1.67,0l.79-.17.14.67-12.51,2.6-.14-.67.8-.17a3.27,3.27,0,0,0,1.59-.72,1.7,1.7,0,0,0,.53-1,7.92,7.92,0,0,0-.28-2.31l-3.35-16.13a8.33,8.33,0,0,0-.68-2.31,1.8,1.8,0,0,0-1-.65,3.19,3.19,0,0,0-1.67,0l-.79.17-.14-.67,12.51-2.6.14.67-.79.17a3.26,3.26,0,0,0-1.6.72,1.8,1.8,0,0,0-.54,1,7.61,7.61,0,0,0,.28,2.32l1.44,6.94,8.45-1.76-1.44-6.94a8.71,8.71,0,0,0-.68-2.31,1.87,1.87,0,0,0-1-.65,3.24,3.24,0,0,0-1.68,0l-.77.16-.14-.67,12.5-2.59.13.66-.77.17a3.26,3.26,0,0,0-1.6.72,1.8,1.8,0,0,0-.54,1,7.82,7.82,0,0,0,.27,2.32l3.35,16.12a8.71,8.71,0,0,0,.68,2.31,1.88,1.88,0,0,0,1,.66,3.35,3.35,0,0,0,1.68,0l.78-.17.13.67-12.49,2.6-.14-.67.78-.16a3.27,3.27,0,0,0,1.59-.73,1.74,1.74,0,0,0,.55-1,8,8,0,0,0-.28-2.32l-1.58-7.59Z"/><path class="cls-1" d="M625.22,783.57l2.42,6.58a7.58,7.58,0,0,0,1.11,2.32,1.78,1.78,0,0,0,1.09.49,5.63,5.63,0,0,0,2.26-.49l.23.64-11.74,4.31-.24-.64a5.5,5.5,0,0,0,2-1.1,1.93,1.93,0,0,0,.51-1.08,8.11,8.11,0,0,0-.65-2.47l-5.6-15.25a8.26,8.26,0,0,0-1.11-2.32,1.78,1.78,0,0,0-1.09-.49,5.63,5.63,0,0,0-2.26.49l-.23-.64L622.63,770a24.2,24.2,0,0,1,6.31-1.65,6.5,6.5,0,0,1,3.94,1,6.31,6.31,0,0,1,2.58,3.27,5.94,5.94,0,0,1-.25,5,7.89,7.89,0,0,1-2.67,2.81l8.44,5.93a12.45,12.45,0,0,0,2.24,1.36,3,3,0,0,0,1.83,0l.23.64L638.05,791l-11.32-8ZM621,772l3.78,10.3,1-.36a11.11,11.11,0,0,0,3.36-1.73,3.75,3.75,0,0,0,1.25-2.27,6.3,6.3,0,0,0-.43-3.25,6,6,0,0,0-2.68-3.52,5.64,5.64,0,0,0-4.43.17Z"/><path class="cls-1" d="M658.06,781.45l.29.62-11.61,5.37-.28-.62.73-.34a3.41,3.41,0,0,0,1.4-1.07,1.71,1.71,0,0,0,.28-1.11,8,8,0,0,0-.8-2.2l-6.9-14.94a8.86,8.86,0,0,0-1.19-2.1,1.84,1.84,0,0,0-1.08-.42,3.21,3.21,0,0,0-1.63.35l-.74.34-.29-.61,11.61-5.37.28.62-.73.34a3.41,3.41,0,0,0-1.4,1.07,1.72,1.72,0,0,0-.29,1.12,7.48,7.48,0,0,0,.79,2.19l6.91,14.95a7.86,7.86,0,0,0,1.19,2.09,1.93,1.93,0,0,0,1.09.42,3.13,3.13,0,0,0,1.63-.36Z"/><path class="cls-1" d="M669.93,746.52l4.37,7.66-.58.33a11.26,11.26,0,0,0-5.87-3,8.4,8.4,0,0,0-5.52,1,6.75,6.75,0,0,0-3.19,3.63,8.64,8.64,0,0,0-.06,5.1,22.08,22.08,0,0,0,2.21,5.41,21.84,21.84,0,0,0,3.84,5.08,7.19,7.19,0,0,0,4.3,2.14,7.54,7.54,0,0,0,4.45-1.07,9,9,0,0,0,1.48-1.06,13.38,13.38,0,0,0,1.37-1.43l-2.57-4.52a5.76,5.76,0,0,0-1.12-1.57,1.92,1.92,0,0,0-1.1-.27,3,3,0,0,0-1.48.44l-.55.31-.34-.59,10.32-5.88.34.59a5.26,5.26,0,0,0-1.45,1.26,1.93,1.93,0,0,0-.24,1.24,5.39,5.39,0,0,0,.71,1.57l2.57,4.52a23.49,23.49,0,0,1-3.44,3.82,25,25,0,0,1-4.29,3.07,15,15,0,0,1-5.5,2,14.7,14.7,0,0,1-4.79-.21,12.09,12.09,0,0,1-4.15-1.73,12.64,12.64,0,0,1-3.91-4.33,13,13,0,0,1-1.36-10.21,13.2,13.2,0,0,1,6.55-8.21,16.94,16.94,0,0,1,3-1.37,18,18,0,0,1,2.65-.54,9.75,9.75,0,0,0,2.16-.44,1.33,1.33,0,0,0,.63-.79,3.33,3.33,0,0,0,0-1.64Z"/><path class="cls-1" d="M688,750.51l4.56,6.27a8,8,0,0,0,1.58,1.82,1.83,1.83,0,0,0,1.15.2,3.12,3.12,0,0,0,1.53-.66l.66-.48.4.55-10.33,7.52-.41-.55.66-.48a3.41,3.41,0,0,0,1.16-1.32,1.68,1.68,0,0,0,.06-1.14,7.89,7.89,0,0,0-1.21-2l-9.69-13.31a8.15,8.15,0,0,0-1.57-1.83,1.77,1.77,0,0,0-1.14-.2,3.06,3.06,0,0,0-1.53.67l-.66.47-.4-.55L683.15,738l.41.55-.66.48a3.41,3.41,0,0,0-1.16,1.32,1.76,1.76,0,0,0-.07,1.15,7.42,7.42,0,0,0,1.21,2l4.17,5.73,7-5.08-4.17-5.73a8.28,8.28,0,0,0-1.57-1.82,1.88,1.88,0,0,0-1.15-.21,3.17,3.17,0,0,0-1.54.68l-.64.46-.41-.55,10.32-7.51.41.56-.65.46a3.35,3.35,0,0,0-1.15,1.32,1.79,1.79,0,0,0-.08,1.16,7.9,7.9,0,0,0,1.21,2l9.69,13.32a8.26,8.26,0,0,0,1.57,1.82,1.8,1.8,0,0,0,1.15.2,3.32,3.32,0,0,0,1.54-.67l.64-.47.4.55-10.32,7.51-.4-.55.64-.47a3.25,3.25,0,0,0,1.16-1.32,1.76,1.76,0,0,0,.07-1.15,7.58,7.58,0,0,0-1.21-2L695,745.43Z"/><path class="cls-1" d="M712,714l4.53,5-.48.44a10.57,10.57,0,0,0-3.21-1.65,4.81,4.81,0,0,0-2.52.07,6,6,0,0,0-2,1.35l-1.35,1.22,12.89,14.37a7.89,7.89,0,0,0,1.76,1.64,1.83,1.83,0,0,0,1.16.09,3.2,3.2,0,0,0,1.47-.84l.6-.54.46.51-9.53,8.55-.45-.51.6-.54a3.3,3.3,0,0,0,1-1.43,1.79,1.79,0,0,0,0-1.16,7.92,7.92,0,0,0-1.41-1.86l-12.89-14.37-1.32,1.18a5,5,0,0,0-2,3.19,7.09,7.09,0,0,0,1.37,4.5l-.51.46-4.53-5Z"/><path class="cls-1" d="M735,709.22l5.23,4.56a8,8,0,0,0,2.09,1.5,1.81,1.81,0,0,0,1.2-.1,5.8,5.8,0,0,0,1.74-1.51l.51.45-8.16,9.36-.52-.45a5.32,5.32,0,0,0,1.27-1.95,1.9,1.9,0,0,0-.07-1.19,7.79,7.79,0,0,0-1.76-1.85l-12.25-10.68a8,8,0,0,0-2.08-1.5,1.75,1.75,0,0,0-1.2.1,5.62,5.62,0,0,0-1.74,1.51l-.52-.45,7-8q3.45-4,6.41-4.44a6,6,0,0,1,5.12,1.43,6.19,6.19,0,0,1,2.17,3.86,7.44,7.44,0,0,1-.89,4.62A27,27,0,0,1,735,709.22Zm-9.23-8.06,8.15,7.11c.28-.28.48-.5.62-.65a4.32,4.32,0,0,0,1.22-3.43,6.08,6.08,0,0,0-2.34-3.62,5.87,5.87,0,0,0-3.86-1.79,4.59,4.59,0,0,0-3.31,1.83Z"/><path class="cls-1" d="M739.58,684.11l8.25,6,.28-.4a3.81,3.81,0,0,0,.78-3.6,9.34,9.34,0,0,0-2.79-3.67l.4-.56,10.61,7.7-.41.56a10.25,10.25,0,0,0-3.37-1.33,4,4,0,0,0-2.43.23,5.91,5.91,0,0,0-1.95,1.88l5.7,4.15a9.86,9.86,0,0,0,2.15,1.34,1.48,1.48,0,0,0,1-.07,3,3,0,0,0,1.13-1.05l.85-1.18a8.59,8.59,0,0,0,1.92-5.4,9.05,9.05,0,0,0-2.26-5.3l.39-.54,5.79,5.56-12.42,17.09-.55-.4.48-.65a3.43,3.43,0,0,0,.69-1.62,1.68,1.68,0,0,0-.29-1.1,7.77,7.77,0,0,0-1.77-1.53l-13.32-9.67a14.82,14.82,0,0,0-1.74-1.16,1.78,1.78,0,0,0-1.2,0,3,3,0,0,0-1.52,1.21l-.48.66-.55-.41,12-16.55,6,4.35-.41.56a9.15,9.15,0,0,0-4-1.11,5.45,5.45,0,0,0-3,1.15,14.55,14.55,0,0,0-2.49,2.87Z"/><path class="cls-1" d="M753.46,659.78a12,12,0,0,1,7.79-6.44,12.69,12.69,0,0,1,9.86,1.52,13.52,13.52,0,0,1,5.87,6.58,12,12,0,0,1-1,11.21q-3.33,5.7-9.1,6.51a13.42,13.42,0,0,1-8.85-1.86,12.64,12.64,0,0,1-6.16-7.88A11.66,11.66,0,0,1,753.46,659.78Zm1.13.41c-1.13,1.93-1,4,.46,6.17q1.77,2.68,6.43,5.4,5.52,3.22,9.28,2.87a5,5,0,0,0,4-2.63,5,5,0,0,0,.77-3.14,7.61,7.61,0,0,0-2-4,21.33,21.33,0,0,0-5.4-4.17,23.21,23.21,0,0,0-6.87-3,7.24,7.24,0,0,0-4.16.23A5.33,5.33,0,0,0,754.59,660.19Z"/><path class="cls-1" d="M777.12,644.85l6.31,2.9a7.73,7.73,0,0,0,2.42.85,1.77,1.77,0,0,0,1.12-.44,5.4,5.4,0,0,0,1.24-1.93l.62.28-5.19,11.28-.62-.28a5.46,5.46,0,0,0,.66-2.23,1.85,1.85,0,0,0-.4-1.12,7.91,7.91,0,0,0-2.22-1.28l-14.75-6.8a8.2,8.2,0,0,0-2.42-.85,1.81,1.81,0,0,0-1.12.43,5.61,5.61,0,0,0-1.25,2l-.62-.29,4.46-9.67q2.21-4.78,4.9-6.06a6,6,0,0,1,5.32-.07,6.23,6.23,0,0,1,3.17,3.08,7.44,7.44,0,0,1,.44,4.69A27.33,27.33,0,0,1,777.12,644.85ZM766,639.72l9.82,4.53c.19-.35.33-.62.41-.81a4.31,4.31,0,0,0,.21-3.64,6.12,6.12,0,0,0-3.27-2.81,5.88,5.88,0,0,0-4.2-.63,4.59,4.59,0,0,0-2.66,2.69Z"/><path class="cls-1" d="M792.82,612l8,3.82-7.3,20.44-.65-.23.28-.76a3.3,3.3,0,0,0,.21-1.75,1.72,1.72,0,0,0-.59-1,7.72,7.72,0,0,0-2.13-1L775.11,626a8.33,8.33,0,0,0-2.33-.62,1.75,1.75,0,0,0-1.06.47,3.19,3.19,0,0,0-.89,1.42l-.27.76-.64-.23,4.38-12.27.64.23-.35,1a3.26,3.26,0,0,0-.21,1.74,1.72,1.72,0,0,0,.58,1,7.44,7.44,0,0,0,2.12,1l15,5.37a8.27,8.27,0,0,0,2.38.62,1.44,1.44,0,0,0,1-.54,8.17,8.17,0,0,0,.89-2l.69-1.92a6.83,6.83,0,0,0,.43-3.29,6.05,6.05,0,0,0-1.33-2.86,18,18,0,0,0-3.6-3.19Z"/><path class="cls-1" d="M781.62,596.66l9.87,2.53.12-.47a3.82,3.82,0,0,0-.61-3.64,9.4,9.4,0,0,0-3.94-2.39l.17-.66,12.69,3.25-.17.67a9.91,9.91,0,0,0-3.62,0,4,4,0,0,0-2.18,1.1,6,6,0,0,0-1.12,2.47l6.83,1.75a10.49,10.49,0,0,0,2.49.47,1.53,1.53,0,0,0,.9-.44,3,3,0,0,0,.66-1.39l.36-1.41a8.59,8.59,0,0,0-.21-5.72,9.13,9.13,0,0,0-4.05-4.11L800,588l7.43,3-5.24,20.46-.67-.17.21-.78a3.43,3.43,0,0,0,0-1.76,1.67,1.67,0,0,0-.68-.91,7.55,7.55,0,0,0-2.21-.77l-16-4.09a13,13,0,0,0-2-.44,1.8,1.8,0,0,0-1.13.4,3.06,3.06,0,0,0-1,1.69l-.2.79-.66-.17L783,585.51l7.17,1.84L790,588a9,9,0,0,0-4.13.46,5.37,5.37,0,0,0-2.35,2.16,14.31,14.31,0,0,0-1.26,3.58Z"/></svg>